# xmcd CD database file
#
# Track frame offsets:
#	150
#	21310
#	40251
#	58034
#	72425
#	90128
#	112130
#	122590
#	138039
#	146570
#
# Disc length: 2304 seconds
#
# Revision: 0
# Processed by: cddbd v1.5PL3 Copyright (c) Steve Scherf et al.
# Submitted via: CDex 1.51
#
DISCID=8808fe0a
DTITLE=Paula Tutmarc-Johnson - Dreamgirl
DYEAR=2004
DGENRE=Jazz
TTITLE0=Nomad Heart
TTITLE1=Where You Lead
TTITLE2=Simply This
TTITLE3=Once Upon A Summertime
TTITLE4=Tu E Mon Paradis
TTITLE5=Where Every Sunset Goes
TTITLE6=Raphie's Room
TTITLE7=Dreamgirl
TTITLE8=Sunset Reprise
TTITLE9=Downtown
EXTD=YEAR: 2004
EXTT0=
EXTT1=
EXTT2=
EXTT3=
EXTT4=
EXTT5=
EXTT6=
EXTT7=
EXTT8=
EXTT9=
PLAYORDER=
